<region>
sample=55.wav
lokey=55
hikey=55
pitch_keycenter=55

<region>
sample=56.wav
lokey=56
hikey=56
pitch_keycenter=56

<region>
sample=57.wav
lokey=57
hikey=57
pitch_keycenter=57

<region>
sample=58.wav
lokey=58
hikey=58
pitch_keycenter=58

<region>
sample=59.wav
lokey=59
hikey=59
pitch_keycenter=59

<region>
sample=60.wav
lokey=60
hikey=60
pitch_keycenter=60

<region>
sample=61.wav
lokey=61
hikey=61
pitch_keycenter=61

<region>
sample=62.wav
lokey=62
hikey=62
pitch_keycenter=62

<region>
sample=63.wav
lokey=63
hikey=63
pitch_keycenter=63

<region>
sample=64.wav
lokey=64
hikey=64
pitch_keycenter=64

<region>
sample=65.wav
lokey=65
hikey=65
pitch_keycenter=65

<region>
sample=66.wav
lokey=66
hikey=66
pitch_keycenter=66

<region>
sample=67.wav
lokey=67
hikey=67
pitch_keycenter=67

<region>
sample=68.wav
lokey=68
hikey=68
pitch_keycenter=68

<region>
sample=69.wav
lokey=69
hikey=69
pitch_keycenter=69

<region>
sample=70.wav
lokey=70
hikey=70
pitch_keycenter=70

<region>
sample=71.wav
lokey=71
hikey=71
pitch_keycenter=71

<region>
sample=72.wav
lokey=72
hikey=72
pitch_keycenter=72

<region>
sample=73.wav
lokey=73
hikey=73
pitch_keycenter=73

<region>
sample=74.wav
lokey=74
hikey=74
pitch_keycenter=74

<region>
sample=75.wav
lokey=75
hikey=75
pitch_keycenter=75

<region>
sample=76.wav
lokey=76
hikey=76
pitch_keycenter=76

<region>
sample=77.wav
lokey=77
hikey=77
pitch_keycenter=77

<region>
sample=78.wav
lokey=78
hikey=78
pitch_keycenter=78

<region>
sample=79.wav
lokey=79
hikey=79
pitch_keycenter=79

<region>
sample=80.wav
lokey=80
hikey=80
pitch_keycenter=80

<region>
sample=81.wav
lokey=81
hikey=81
pitch_keycenter=81

<region>
sample=82.wav
lokey=82
hikey=82
pitch_keycenter=82
